<?xml version="1.0" standalone="no"?>
<!DOCTYPE svg PUBLIC "-//W3C//DTD SVG 20010904//EN"
 "http://www.w3.org/TR/2001/REC-SVG-20010904/DTD/svg10.dtd">
<svg version="1.0" xmlns="http://www.w3.org/2000/svg"
 width="700.000000pt" height="700.000000pt" viewBox="0 0 700.000000 700.000000"
 preserveAspectRatio="xMidYMid meet">
<metadata>
Created by potrace 1.14, written by Peter Selinger 2001-2017
</metadata>
<g transform="translate(0.000000,700.000000) scale(0.100000,-0.100000)"
fill="#000000" stroke="none">
<path d="M1255 5404 c-33 -8 -94 -31 -135 -51 -104 -52 -230 -178 -283 -283
-72 -145 -68 -51 -65 -1511 l3 -1314 24 -70 c84 -251 255 -438 484 -533 157
-66 23 -62 2217 -62 1781 0 1999 2 2068 16 297 61 531 275 633 579 l24 70 3
1314 c3 1460 7 1366 -65 1511 -53 106 -180 233 -283 283 -149 72 33 67 -2385
66 -1867 -1 -2189 -3 -2240 -15z m4460 -332 c65 -30 138 -102 167 -166 l23
-51 3 -1239 c1 -816 -1 -1259 -8 -1295 -37 -203 -217 -378 -420 -411 -91 -14
-3871 -14 -3959 1 -183 29 -336 158 -402 339 l-24 65 0 1265 c0 1223 1 1267
19 1315 35 90 129 172 223 194 22 5 953 8 2183 8 l2145 -2 50 -23z"/>
<path d="M1499 4551 l-29 -29 0 -202 c0 -219 5 -246 55 -268 40 -18 397 -16
434 2 46 24 51 50 51 267 l0 201 -29 29 -29 29 -212 0 -212 0 -29 -29z"/>
<path d="M2327 4569 c-41 -24 -47 -59 -47 -265 l0 -196 35 -35 34 -34 211 3
212 3 24 28 c24 28 24 31 24 238 l0 211 -29 29 -29 29 -209 0 c-123 0 -215 -5
-226 -11z"/>
<path d="M3125 4556 c-33 -33 -37 -67 -33 -274 l3 -182 28 -27 27 -28 198 -3
c117 -2 209 1 224 7 54 21 63 49 66 230 5 200 -1 241 -35 275 l-26 26 -214 0
c-212 0 -214 0 -238 -24z"/>
<path d="M3937 4552 l-27 -28 0 -211 c0 -209 0 -212 24 -240 l24 -28 210 -3
210 -3 34 30 33 29 3 198 c2 137 0 206 -9 226 -23 56 -34 58 -264 58 l-211 0
-27 -28z"/>
<path d="M4749 4551 l-29 -29 0 -617 0 -617 29 -29 29 -29 346 0 345 0 28 24
28 24 3 622 2 621 -29 30 -29 29 -347 0 -347 0 -29 -29z"/>
<path d="M1499 3741 l-29 -29 0 -212 0 -212 29 -29 29 -29 212 0 212 0 29 29
29 29 0 212 0 212 -29 29 -29 29 -212 0 -212 0 -29 -29z"/>
<path d="M2331 3756 c-46 -25 -50 -48 -51 -254 0 -210 6 -238 55 -260 17 -8
92 -12 226 -12 l201 0 29 29 29 29 0 212 0 212 -29 29 -29 29 -204 0 c-149 -1
-209 -4 -227 -14z"/>
<path d="M3128 3741 l-33 -29 0 -212 0 -212 33 -29 32 -29 205 0 205 0 32 29
33 29 0 212 0 212 -33 29 -32 29 -205 0 -205 0 -32 -29z"/>
<path d="M3939 3741 l-29 -29 0 -212 0 -212 29 -29 29 -29 202 0 c219 0 246 5
268 55 8 17 12 90 12 215 0 125 -4 198 -12 215 -22 50 -49 55 -268 55 l-202 0
-29 -29z"/>
<path d="M1521 2946 c-46 -26 -50 -47 -51 -264 l0 -204 29 -29 29 -29 212 0
212 0 29 29 29 29 0 201 c0 217 -5 243 -51 267 -39 19 -402 20 -438 0z"/>
<path d="M2314 2926 l-34 -34 0 -196 c0 -208 6 -243 49 -266 27 -14 2315 -14
2342 0 43 23 49 58 49 266 l0 196 -34 34 -34 34 -1152 0 -1152 0 -34 -34z"/>
<path d="M5041 2946 c-46 -26 -50 -47 -51 -264 l0 -204 29 -29 29 -29 212 0
212 0 29 29 29 29 0 201 c0 217 -5 243 -51 267 -39 19 -402 20 -438 0z"/>
</g>
</svg>
