<?xml version="1.0" encoding="UTF-8" standalone="no"?>
<!-- Uploaded to: SVG Repo, www.svgrepo.com, Generator: SVG Repo Mixer Tools -->

<svg
   height="128"
   width="128"
   version="1.1"
   id="_x32_"
   viewBox="0 0 128 128"
   xml:space="preserve"
   sodipodi:docname="keyboard-4-svgrepo-com.svg"
   inkscape:version="1.3 (0e150ed6c4, 2023-07-21)"
   xmlns:inkscape="http://www.inkscape.org/namespaces/inkscape"
   xmlns:sodipodi="http://sodipodi.sourceforge.net/DTD/sodipodi-0.dtd"
   xmlns="http://www.w3.org/2000/svg"
   xmlns:svg="http://www.w3.org/2000/svg"><defs
   id="defs13" /><sodipodi:namedview
   id="namedview13"
   pagecolor="#ffffff"
   bordercolor="#000000"
   borderopacity="0.25"
   inkscape:showpageshadow="2"
   inkscape:pageopacity="0.0"
   inkscape:pagecheckerboard="0"
   inkscape:deskcolor="#d1d1d1"
   inkscape:zoom="4.155"
   inkscape:cx="49.578821"
   inkscape:cy="76.173285"
   inkscape:window-width="1920"
   inkscape:window-height="1027"
   inkscape:window-x="1912"
   inkscape:window-y="-8"
   inkscape:window-maximized="1"
   inkscape:current-layer="_x32_" />&#10;<style
   type="text/css"
   id="style1">&#10;	.st0{fill:#000000;}&#10;</style>&#10;<g
   id="g13"
   transform="matrix(0.1953125,0,0,0.1953125,14,14)">&#10;	<path
   class="st0"
   d="M 451.791,76.035 H 60.21 C 27.018,76.035 0,103.059 0,136.25 v 221.526 c 0,43.111 35.072,78.189 78.178,78.189 h 355.644 c 43.106,0 78.178,-35.078 78.178,-78.189 V 136.25 c 0,-33.191 -27.018,-60.215 -60.209,-60.215 z m 29.791,281.741 c 0,26.34 -21.426,47.765 -47.76,47.765 H 78.178 c -26.334,0 -47.76,-21.425 -47.76,-47.765 V 136.25 c 0,-16.43 13.367,-29.791 29.792,-29.791 h 391.581 c 16.424,0 29.791,13.36 29.791,29.791 z"
   id="path1" />&#10;	<path
   class="st0"
   d="m 150.967,281.349 h 32.636 c 4.986,0 9.028,-4.042 9.028,-9.028 v -32.642 c 0,-4.986 -4.042,-9.028 -9.028,-9.028 h -32.636 c -4.987,0 -9.029,4.042 -9.029,9.028 v 32.642 c 0,4.986 4.042,9.028 9.029,9.028 z"
   id="path2" />&#10;	<path
   class="st0"
   d="m 227.01,281.349 h 32.631 c 4.987,0 9.029,-4.042 9.029,-9.028 v -32.642 c 0,-4.986 -4.042,-9.028 -9.029,-9.028 H 227.01 c -4.986,0 -9.029,4.042 -9.029,9.028 v 32.642 c 0,4.986 4.043,9.028 9.029,9.028 z"
   id="path3" />&#10;	<path
   class="st0"
   d="m 303.048,281.349 h 32.636 c 4.986,0 9.029,-4.042 9.029,-9.028 v -32.642 c 0,-4.986 -4.043,-9.028 -9.029,-9.028 h -32.636 c -4.986,0 -9.029,4.042 -9.029,9.028 v 32.642 c 0,4.986 4.043,9.028 9.029,9.028 z"
   id="path4" />&#10;	<path
   class="st0"
   d="m 437.067,306.694 h -32.632 c -4.986,0 -9.028,4.043 -9.028,9.029 v 32.631 c 0,4.986 4.042,9.029 9.028,9.029 h 32.632 c 4.986,0 9.029,-4.043 9.029,-9.029 v -32.631 c 0,-4.986 -4.044,-9.029 -9.029,-9.029 z"
   id="path5" />&#10;	<path
   class="st0"
   d="m 150.967,205.307 h 32.636 c 4.986,0 9.028,-4.043 9.028,-9.029 v -32.631 c 0,-4.986 -4.042,-9.028 -9.028,-9.028 h -32.636 c -4.987,0 -9.029,4.042 -9.029,9.028 v 32.631 c 0,4.986 4.042,9.029 9.029,9.029 z"
   id="path6" />&#10;	<path
   class="st0"
   d="M 107.566,230.651 H 74.929 c -4.986,0 -9.029,4.042 -9.029,9.028 v 32.642 c 0,4.986 4.043,9.028 9.029,9.028 h 32.636 c 4.986,0 9.029,-4.042 9.029,-9.028 v -32.642 c 0,-4.986 -4.043,-9.028 -9.028,-9.028 z"
   id="path7" />&#10;	<path
   class="st0"
   d="M 107.566,154.619 H 74.929 c -4.986,0 -9.029,4.042 -9.029,9.028 v 32.631 c 0,4.986 4.043,9.029 9.029,9.029 h 32.636 c 4.986,0 9.029,-4.043 9.029,-9.029 v -32.631 c 0,-4.986 -4.043,-9.028 -9.028,-9.028 z"
   id="path8" />&#10;	<path
   class="st0"
   d="M 107.566,306.694 H 74.934 c -4.987,0 -9.029,4.043 -9.029,9.029 v 32.631 c 0,4.986 4.042,9.029 9.029,9.029 h 32.631 c 4.986,0 9.029,-4.043 9.029,-9.029 v -32.631 c 0,-4.986 -4.043,-9.029 -9.028,-9.029 z"
   id="path9" />&#10;	<path
   class="st0"
   d="m 227.01,205.307 h 32.631 c 4.987,0 9.029,-4.043 9.029,-9.029 v -32.631 c 0,-4.986 -4.042,-9.028 -9.029,-9.028 H 227.01 c -4.986,0 -9.029,4.042 -9.029,9.028 v 32.631 c 0,4.986 4.043,9.029 9.029,9.029 z"
   id="path10" />&#10;	<path
   class="st0"
   d="m 303.048,205.307 h 32.636 c 4.986,0 9.029,-4.043 9.029,-9.029 v -32.631 c 0,-4.986 -4.043,-9.028 -9.029,-9.028 h -32.636 c -4.986,0 -9.029,4.042 -9.029,9.028 v 32.631 c 0,4.986 4.043,9.029 9.029,9.029 z"
   id="path11" />&#10;	<path
   class="st0"
   d="M 361.029,306.694 H 150.967 c -4.987,0 -9.029,4.043 -9.029,9.029 v 32.631 c 0,4.986 4.042,9.029 9.029,9.029 h 210.062 c 4.986,0 9.028,-4.043 9.028,-9.029 v -32.631 c 0,-4.986 -4.043,-9.029 -9.028,-9.029 z"
   id="path12" />&#10;	<path
   class="st0"
   d="m 437.067,154.619 h -57.981 c -4.987,0 -9.029,4.042 -9.029,9.028 v 108.674 c 0,4.986 4.042,9.028 9.029,9.028 h 57.981 c 4.986,0 9.029,-4.042 9.029,-9.028 V 163.647 c 0,-4.986 -4.044,-9.028 -9.029,-9.028 z"
   id="path13" />&#10;</g>&#10;</svg>
